<svg width="120" height="120" viewBox="0 0 120 120" fill="none" xmlns="http://www.w3.org/2000/svg">
<path d="M53.006 108C56.872 108 60.006 104.866 60.006 101V41C60.006 37.134 56.872 34 53.006 34H23C19.134 34 16 37.134 16 41V101C16 104.866 19.134 108 23 108H53.006Z" stroke="white" stroke-opacity="0.75" stroke-width="2" stroke-miterlimit="10"/>
<path d="M40 62H24V50H52V62H46" stroke="white" stroke-opacity="0.75" stroke-width="2" stroke-miterlimit="10"/>
<path d="M30 42H46" stroke="white" stroke-opacity="0.75" stroke-width="2" stroke-miterlimit="10"/>
<path d="M58 30V24H102V42H66" stroke="white" stroke-opacity="0.75" stroke-width="2" stroke-miterlimit="10"/>
<path d="M64 16H96" stroke="white" stroke-opacity="0.75" stroke-width="2" stroke-miterlimit="10"/>
<path d="M16 92H60.006" stroke="white" stroke-opacity="0.75" stroke-width="2" stroke-miterlimit="10"/>
<path d="M40 98H36V102H40V98Z" fill="white" fill-opacity="0.75"/>
<path d="M82 82H78V86H82V82Z" fill="white" fill-opacity="0.75"/>
<path d="M66 92H103C106.866 92 110 88.866 110 85V13C110 9.134 106.866 6 103 6H57C53.134 6 50 9.134 50 13V28" stroke="white" stroke-opacity="0.75" stroke-width="2" stroke-miterlimit="10"/>
<path d="M66 76H110" stroke="white" stroke-opacity="0.75" stroke-width="2" stroke-miterlimit="10"/>
<path d="M42 116H78" stroke="white" stroke-opacity="0.75" stroke-width="2" stroke-miterlimit="10"/>
<path d="M82 116H86" stroke="white" stroke-opacity="0.75" stroke-width="2" stroke-miterlimit="10"/>
<path d="M80 100H104" stroke="white" stroke-opacity="0.75" stroke-width="2" stroke-miterlimit="10"/>
<path d="M108 100H112" stroke="white" stroke-opacity="0.75" stroke-width="2" stroke-miterlimit="10"/>
<path d="M28 14V2" stroke="white" stroke-opacity="0.75" stroke-width="2" stroke-miterlimit="10"/>
<path d="M19.172 17.172L10.812 8.81201" stroke="white" stroke-opacity="0.75" stroke-width="2" stroke-miterlimit="10"/>
<path d="M16 26H4" stroke="white" stroke-opacity="0.75" stroke-width="2" stroke-miterlimit="10"/>
</svg>
